<?xml version="1.0" encoding="UTF-8"?>
<svg width="77px" height="124px" viewBox="0 0 77 124" version="1.1" xmlns="http://www.w3.org/2000/svg" xmlns:xlink="http://www.w3.org/1999/xlink">
    <!-- Generator: Sketch 61.2 (89653) - https://sketch.com -->
    <title>银杏初始</title>
    <desc>Created with Sketch.</desc>
    <g id="svg切图" stroke="none" stroke-width="1" fill="none" fill-rule="evenodd">
        <g id="银杏初始">
            <ellipse id="椭圆形" fill="#000000" opacity="0.15" cx="37.9690937" cy="115.700625" rx="22.816" ry="5.888"></ellipse>
            <path d="M35.9604325,6 C30.8751611,6 32.4643084,20.620155 27.6968666,21.255814 C22.9294247,21.8914729 23.8829131,19.0310078 21.022448,19.0310078 C18.1619829,19.0310078 18.1619829,45.0930233 15.9371767,45.7286822 C13.7123705,46.3643411 14.0301999,42.5503876 11.8053937,48.2713178 C9.58058751,53.9922481 10.2162464,93.4031008 37.2317503,93.4031008 C64.2472542,93.4031008 67.4255487,62.8914729 64.8829131,61.9379845 C62.3402774,60.9844961 62.3402774,65.1162791 61.0689596,63.5271318 C59.7976418,61.9379845 62.1313649,44.3931653 61.7046185,38.1007752 C61.1004809,29.1927438 58.923953,24.6824556 56.9371767,24.4341085 C51.8519053,23.7984496 52.1697348,31.4263566 49.3092697,31.4263566 C46.4488046,31.4263566 50.262758,13.9457364 46.4488046,13.9457364 C42.6348511,13.9457364 44.8596573,17.7596899 41.6813627,17.7596899 C38.5030681,17.7596899 41.0457038,6 35.9604325,6 Z" id="路径-72" fill="#008051"></path>
            <line x1="37.6851249" y1="24.4341085" x2="37.6851249" y2="114.062016" id="路径-441" stroke="#09584A" stroke-width="3" stroke-linecap="round"></line>
            <path d="M32.1797385,24.8887043 C31.5021068,34.4228498 33.2468342,39.3565891 37.4139208,39.6899225" id="路径-442" stroke="#09584A" stroke-width="1.5" stroke-linecap="round"></path>
            <path d="M44.0865384,27.5700032 C44.7516221,37.312671 42.8219613,42.9979826 38.2975561,44.625938" id="路径-443" stroke="#09584A" stroke-width="1.5" stroke-linecap="round"></path>
            <path d="M24.2313019,37.1228384 C24.0209421,59.5138413 28.6142907,71.8165645 38.0113479,74.0310078" id="路径-444" stroke="#09584A" stroke-width="1.5" stroke-linecap="round"></path>
            <path d="M21.0479424,64.3950591 C21.0479424,65.0415039 21.1803183,91.1382328 37.6851249,93.4031008" id="路径-445" stroke="#09584A" stroke-width="1.5" stroke-linecap="round"></path>
            <path d="M54.1899315,33.6279297 C52.2582975,41.3258464 51.2924805,51.0725911 51.2924805,62.8681641 C51.2924805,80.5615234 44.6290989,85.9345703 38.3333333,84.9746094" id="路径-446" stroke="#09584A" stroke-width="1.5" stroke-linecap="round"></path>
            <path d="M18.776849,46.0309964 C18.776849,46.4016113 18.1930334,61.1510945 27.0767329,60.8255473" id="路径-447" stroke="#09584A" stroke-linecap="round"></path>
            <path d="M32.472557,55.5122273 C33.8299686,61.991576 32.7946274,65.6218672 29.3665336,66.4031008" id="路径-450" stroke="#09584A" stroke-linecap="round"></path>
            <path d="M18.4642971,72.7286012 C18.8762672,78.617216 20.7962991,81.5615234 24.2243929,81.5615234" id="路径-451" stroke="#09584A" stroke-linecap="round"></path>
            <path d="M44.8271484,59.5542078 C44.1500536,68.7405653 45.9252379,73.5661653 50.1527013,74.0310078" id="路径-452" stroke="#09584A" stroke-linecap="round"></path>
            <path d="M59.4430018,41.581366 C60.8897777,52.3701842 58.2203005,58.3611315 51.4345703,59.5542078" id="路径-453" stroke="#09584A" stroke-linecap="round"></path>
            <path d="M54.0909854,70.8079114 C53.9941264,77.7001722 51.5506307,81.2847096 46.760498,81.5615234" id="路径-454" stroke="#09584A" stroke-linecap="round"></path>
        </g>
    </g>
</svg>