<?xml version="1.0" encoding="UTF-8"?>
<svg width="77px" height="124px" viewBox="0 0 77 124" version="1.1" xmlns="http://www.w3.org/2000/svg" xmlns:xlink="http://www.w3.org/1999/xlink">
    <!-- Generator: Sketch 61.2 (89653) - https://sketch.com -->
    <title>银杏右</title>
    <desc>Created with Sketch.</desc>
    <g id="svg切图" stroke="none" stroke-width="1" fill="none" fill-rule="evenodd">
        <g id="银杏右">
            <ellipse id="椭圆形" fill="#000000" opacity="0.15" cx="37.9690937" cy="115.700625" rx="22.816" ry="5.888"></ellipse>
            <path d="M44.2990814,6.80292057 C39.2138101,6.80292057 40.8029574,21.4230756 36.0355155,22.0587345 C31.2680736,22.6943934 32.221562,19.8339283 29.3610969,19.8339283 C26.5006318,19.8339283 26.5006318,45.8959438 24.2758256,46.5316027 C22.0510194,47.1672617 22.3688488,43.3533082 20.1440426,49.0742384 C17.9192364,54.7951686 18.5548953,94.2060213 45.5703992,94.2060213 C72.5859031,94.2060213 75.7641977,63.6943934 73.221562,62.7409051 C70.6789264,61.7874167 70.6789264,65.9191996 69.4076085,64.3300524 C68.1362907,62.7409051 70.4700138,45.1960859 70.0432674,38.9036958 C69.4391298,29.9956644 67.2626019,25.4853761 65.2758256,25.2370291 C60.1905543,24.6013702 60.5083837,32.2292772 57.6479186,32.2292772 C54.7874535,32.2292772 58.601407,14.748657 54.7874535,14.748657 C50.9735,14.748657 53.1983062,18.5626105 50.0200116,18.5626105 C46.8417171,18.5626105 49.3843527,6.80292057 44.2990814,6.80292057 Z" id="路径-72" fill="#008051" transform="translate(46.636205, 50.504471) rotate(11.000000) translate(-46.636205, -50.504471) "></path>
            <path d="M48.6851249,24.4341085 C43.463729,41.0090883 40.235354,54.3294052 39,64.3950591 C37.764646,74.4607131 37.3263543,91.0163652 37.6851249,114.062016" id="路径-441" stroke="#09584A" stroke-width="3" stroke-linecap="round"></path>
            <path d="M39.2358653,24.5866047 C38.5582336,34.1207501 40.3029611,39.0544895 44.4700477,39.3878228" id="路径-442" stroke="#09584A" stroke-width="1.5" stroke-linecap="round" transform="translate(41.781871, 31.987214) rotate(0.000000) translate(-41.781871, -31.987214) "></path>
            <path d="M52.7017942,28.997786 C53.3668778,38.7404538 51.437217,44.4257654 46.9128118,46.0537208" id="路径-443" stroke="#09584A" stroke-width="1.5" stroke-linecap="round" transform="translate(49.871231, 37.525753) rotate(19.000000) translate(-49.871231, -37.525753) "></path>
            <path d="M27.8791598,36.1465544 C27.6688,58.5375573 32.2621487,70.8402805 41.6592058,73.0547238" id="路径-444" stroke="#09584A" stroke-width="1.5" stroke-linecap="round" transform="translate(34.765728, 54.600639) rotate(11.000000) translate(-34.765728, -54.600639) "></path>
            <path d="M22.8775434,63.4893887 C22.8775434,64.1358334 23.0099193,90.2325623 39.5147259,92.4974303" id="路径-445" stroke="#09584A" stroke-width="1.5" stroke-linecap="round" transform="translate(31.196135, 77.993409) rotate(7.000000) translate(-31.196135, -77.993409) "></path>
            <path d="M60.1782716,36.3101508 C58.2466376,44.0080675 57.2808206,53.7548123 57.2808206,65.5503852 C57.2808206,83.2437446 50.617439,88.6167915 44.3216734,87.6568305" id="路径-446" stroke="#09584A" stroke-width="1.5" stroke-linecap="round" transform="translate(52.249972, 62.036820) rotate(14.000000) translate(-52.249972, -62.036820) "></path>
            <path d="M21.9855944,45.4722917 C21.9855944,45.8429066 21.4017787,60.5923898 30.2854783,60.2668425" id="路径-447" stroke="#09584A" stroke-linecap="round" transform="translate(26.131597, 52.872222) rotate(9.000000) translate(-26.131597, -52.872222) "></path>
            <path d="M34.472557,55.5122273 C35.8299686,61.991576 34.7946274,65.6218672 31.3665336,66.4031008" id="路径-450" stroke="#09584A" stroke-linecap="round"></path>
            <path d="M20.4642971,72.7286012 C20.8762672,78.617216 22.7962991,81.5615234 26.2243929,81.5615234" id="路径-451" stroke="#09584A" stroke-linecap="round"></path>
            <path d="M48.729658,59.275107 C48.0525632,68.4614645 49.8277475,73.2870645 54.0552109,73.751907" id="路径-452" stroke="#09584A" stroke-linecap="round" transform="translate(51.322328, 66.513507) rotate(7.000000) translate(-51.322328, -66.513507) "></path>
            <path d="M68.4924071,42.863141 C69.939183,53.6519592 67.2697058,59.6429065 60.4839756,60.8359828" id="路径-453" stroke="#09584A" stroke-linecap="round" transform="translate(64.678883, 51.849562) rotate(14.000000) translate(-64.678883, -51.849562) "></path>
            <path d="M58.2828791,71.8543282 C58.1860201,78.7465891 55.7425244,82.3311264 50.9523918,82.6079403" id="路径-454" stroke="#09584A" stroke-linecap="round" transform="translate(54.617635, 77.231134) rotate(14.000000) translate(-54.617635, -77.231134) "></path>
        </g>
    </g>
</svg>