<svg width="77" height="124" viewBox="0 0 77 124" version="1.1" xmlns="http://www.w3.org/2000/svg">
    <title>银杏右</title>
    <g stroke="none" stroke-width="1" fill="none" fill-rule="evenodd">
        <ellipse fill="#000" opacity=".15" cx="37.969" cy="115.701" rx="22.816" ry="5.888"/>
        <path d="M52.68 7.16c-4.991-.97-6.22 13.684-11.022 13.399-4.801-.286-3.32-2.912-6.127-3.458-2.808-.546-7.781 25.038-10.086 25.237-2.306.2-1.266-3.484-4.541 1.708-3.276 5.19-10.172 43.999 16.347 49.154 26.52 5.155 35.461-24.19 33.147-25.611-2.314-1.421-3.102 2.635-4.047.832-.945-1.803 4.694-18.58 5.476-24.838 1.106-8.86-.17-13.702-2.072-14.325-4.87-1.594-6.014 5.954-8.822 5.408-2.808-.546 4.271-16.977.527-17.705-3.744-.728-2.287 3.44-5.407 2.834-3.12-.606 1.62-11.665-3.372-12.635z"
              fill="#008051"/>
        <path d="M48.685 24.434C43.464 41.01 40.235 54.33 39 64.395c-1.235 10.066-1.674 26.621-1.315 49.667"
              stroke="#09584A" stroke-width="3" stroke-linecap="round"/>
        <path d="M39.236 24.587c-.678 9.534 1.067 14.467 5.234 14.8M55.324 30.384c-2.543 9.428-6.219 14.176-11.026 14.242M31.527 35.172c-4.479 21.94-2.318 34.892 6.484 38.859M24.707 62.584c-.079.641-3.128 26.56 12.978 30.82M66.167 38.992c-3.737 7.002-7.032 16.226-9.886 27.671-4.28 17.168-12.045 20.77-17.922 18.315"
              stroke="#09584A" stroke-width="1.5" stroke-linecap="round"/>
        <path d="M23.194 44.915c-.058.366-2.942 14.842 5.884 15.91M34.473 55.512c1.357 6.48.322 10.11-3.106 10.891M20.464 72.729c.412 5.888 2.332 8.833 5.76 8.833M49.631 59.013c-1.791 9.035-.618 14.041 3.522 15.018M70.553 44.053c-1.206 10.818-5.246 15.985-12.118 15.501M59.475 72.9c-1.762 6.665-5 9.552-9.715 8.662"
              stroke="#09584A" stroke-linecap="round"/>
    </g>
</svg>