<svg width="77" height="124" viewBox="0 0 77 124" version="1.1" xmlns="http://www.w3.org/2000/svg">
    <title>银杏左</title>
    <g stroke="none" stroke-width="1" fill="none" fill-rule="evenodd">
        <ellipse fill="#000" opacity=".15" cx="40.969" cy="115.701" rx="22.816" ry="5.888"/>
        <path d="M25.316 7.442c-5.022.795-1.166 14.987-5.775 16.36-4.61 1.374-4.115-1.6-6.94-1.153-2.825.448 1.252 26.189-.846 27.165-2.098.975-2.381-2.841-3.684 3.157C6.77 58.97 13.562 97.796 40.245 93.57c26.683-4.226 25.049-34.86 22.388-35.403-2.66-.544-2.014 3.536-3.518 2.166-1.504-1.371-1.944-19.065-3.35-25.213-1.99-8.704-4.845-12.818-6.846-12.753-5.123.168-3.615 7.652-6.44 8.1-2.826.447-1.793-17.415-5.56-16.818-3.767.596-.973 4.015-4.113 4.513-3.139.497-2.467-11.516-7.49-10.72z"
              fill="#008051"/>
        <path d="M27.685 24.434c6.569 13.619 10.625 25.75 12.17 36.397 1.543 10.646 1.82 28.39.83 53.231"
              stroke="#09584A" stroke-width="3" stroke-linecap="round"/>
        <path d="M22.016 27.927c2.944 9.094 6.41 13.015 10.398 11.763M36.59 26.628c4.112 8.857 4.348 14.857.708 17.998M20.442 40.43c4.066 22.02 10.922 33.22 20.57 33.601M20.173 66.993c.09.64 3.853 26.464 20.512 26.41M48.946 31.78c-.704 7.906-.133 17.684 1.712 29.334 2.768 17.476-2.973 23.825-9.341 23.862"
              stroke="#09584A" stroke-width="1.5" stroke-linecap="round"/>
        <path d="M17.777 46.031c0 .37-.584 15.12 8.3 14.795M32.473 55.512c1.357 6.48.322 10.11-3.106 10.891M15.271 75.99c2.862 5.163 5.846 7.02 8.953 5.572M45.827 59.554c-.677 9.187 1.098 14.012 5.326 14.477M52.838 40.025c4.538 9.895 3.737 16.404-2.403 19.53M56.091 70.808c-.097 6.892-2.54 10.477-7.33 10.754"
              stroke="#09584A" stroke-linecap="round"/>
    </g>
</svg>