<?xml version="1.0" encoding="UTF-8"?>
<svg width="77px" height="124px" viewBox="0 0 77 124" version="1.1" xmlns="http://www.w3.org/2000/svg" xmlns:xlink="http://www.w3.org/1999/xlink">
    <!-- Generator: Sketch 61.2 (89653) - https://sketch.com -->
    <title>银杏左</title>
    <desc>Created with Sketch.</desc>
    <g id="svg切图" stroke="none" stroke-width="1" fill="none" fill-rule="evenodd">
        <g id="银杏左" transform="translate(-3.000000, 0.000000)">
            <ellipse id="椭圆形" fill="#000000" opacity="0.15" cx="40.9690937" cy="115.700625" rx="22.816" ry="5.888"></ellipse>
            <path d="M32.1240038,6.5380386 C27.0387325,6.5380386 28.6278798,21.1581936 23.8604379,21.7938526 C19.0929961,22.4295115 20.0464844,19.5690464 17.1860193,19.5690464 C14.3255542,19.5690464 14.3255542,45.6310619 12.100748,46.2667208 C9.8759418,46.9023797 10.1937713,43.0884262 7.96896505,48.8093564 C5.74415885,54.5302867 6.37981776,93.9411394 33.3953216,93.9411394 C60.4108255,93.9411394 63.5891201,63.4295115 61.0464844,62.4760231 C58.5038488,61.5225347 58.5038488,65.6543177 57.2325309,64.0651704 C55.9612131,62.4760231 58.2949362,44.9312039 57.8681899,38.6388138 C57.2640522,29.7307824 55.0875243,25.2204942 53.100748,24.9721471 C48.0154767,24.3364882 48.3333061,31.9643952 45.472841,31.9643952 C42.6123759,31.9643952 46.4263294,14.483775 42.6123759,14.483775 C38.7984224,14.483775 41.0232286,18.2977285 37.844934,18.2977285 C34.6666395,18.2977285 37.2092751,6.5380386 32.1240038,6.5380386 Z" id="路径-72" fill="#008051" transform="translate(34.461127, 50.239589) rotate(-9.000000) translate(-34.461127, -50.239589) "></path>
            <path d="M27.6851249,24.4341085 C34.2536713,38.0526766 38.3100093,50.1849263 39.854139,60.8308576 C41.3982686,71.4767889 41.6752639,89.2205082 40.6851249,114.062016" id="路径-441" stroke="#09584A" stroke-width="3" stroke-linecap="round"></path>
            <path d="M24.6031642,26.4345968 C23.9255325,35.9687422 25.6702599,40.9024816 29.8373465,41.235815" id="路径-442" stroke="#09584A" stroke-width="1.5" stroke-linecap="round" transform="translate(27.149170, 33.835206) rotate(-22.000000) translate(-27.149170, -33.835206) "></path>
            <path d="M39.8338913,27.0762246 C40.4989749,36.8188924 38.5693142,42.504204 34.044909,44.1321594" id="路径-443" stroke="#09584A" stroke-width="1.5" stroke-linecap="round" transform="translate(37.003328, 35.604192) rotate(-21.000000) translate(-37.003328, -35.604192) "></path>
            <path d="M23.8367491,38.7772295 C23.6263893,61.1682324 28.219738,73.4709555 37.6167951,75.6853988" id="路径-444" stroke="#09584A" stroke-width="1.5" stroke-linecap="round" transform="translate(30.723318, 57.231314) rotate(-11.000000) translate(-30.723318, -57.231314) "></path>
            <path d="M22.1103288,65.6939354 C22.1103288,66.3403802 22.2427047,92.4371091 38.7475113,94.701977" id="路径-445" stroke="#09584A" stroke-width="1.5" stroke-linecap="round" transform="translate(30.428920, 80.197956) rotate(-8.000000) translate(-30.428920, -80.197956) "></path>
            <path d="M53.0677833,32.7044084 C51.1361493,40.4023251 50.1703323,50.1490699 50.1703323,61.9446428 C50.1703323,79.6380022 43.5069507,85.0110491 37.2111852,84.0510881" id="路径-446" stroke="#09584A" stroke-width="1.5" stroke-linecap="round" transform="translate(45.139484, 58.431077) rotate(-9.000000) translate(-45.139484, -58.431077) "></path>
            <path d="M17.776849,46.0309964 C17.776849,46.4016113 17.1930334,61.1510945 26.0767329,60.8255473" id="路径-447" stroke="#09584A" stroke-linecap="round"></path>
            <path d="M32.472557,55.5122273 C33.8299686,61.991576 32.7946274,65.6218672 29.3665336,66.4031008" id="路径-450" stroke="#09584A" stroke-linecap="round"></path>
            <path d="M16.8676581,74.3595501 C17.2796281,80.2481649 19.1996601,83.1924723 22.6277539,83.1924723" id="路径-451" stroke="#09584A" stroke-linecap="round" transform="translate(19.747706, 78.776011) rotate(-25.000000) translate(-19.747706, -78.776011) "></path>
            <path d="M45.8271484,59.5542078 C45.1500536,68.7405653 46.9252379,73.5661653 51.1527013,74.0310078" id="路径-452" stroke="#09584A" stroke-linecap="round"></path>
            <path d="M55.6323291,40.7475576 C57.079105,51.5363758 54.4096278,57.5273231 47.6238976,58.7203994" id="路径-453" stroke="#09584A" stroke-linecap="round" transform="translate(51.818805, 49.733978) rotate(-17.000000) translate(-51.818805, -49.733978) "></path>
            <path d="M56.0909854,70.8079114 C55.9941264,77.7001722 53.5506307,81.2847096 48.760498,81.5615234" id="路径-454" stroke="#09584A" stroke-linecap="round"></path>
        </g>
    </g>
</svg>