<svg width="77" height="124" viewBox="0 0 77 124" version="1.1" xmlns="http://www.w3.org/2000/svg">
    <title>银杏初始</title>
    <g stroke="none" stroke-width="1" fill="none" fill-rule="evenodd">
        <ellipse fill="#000" opacity=".15" cx="37.969" cy="115.701" rx="22.816" ry="5.888"/>
        <path d="M35.96 6c-5.085 0-3.496 14.62-8.263 15.256-4.768.635-3.814-2.225-6.675-2.225-2.86 0-2.86 26.062-5.085 26.698-2.225.635-1.907-3.179-4.132 2.542-2.224 5.721-1.589 45.132 25.427 45.132 27.015 0 30.194-30.512 27.65-31.465-2.542-.954-2.542 3.178-3.813 1.59-1.271-1.59 1.062-19.135.636-25.427-.605-8.908-2.781-13.419-4.768-13.667-5.085-.636-4.767 6.992-7.628 6.992-2.86 0 .954-17.48-2.86-17.48s-1.59 3.814-4.768 3.814S41.046 6 35.961 6z"
              fill="#008051"/>
        <path stroke="#09584A" stroke-width="3" stroke-linecap="round" d="M37.685 24.434v89.628"/>
        <path d="M32.18 24.889c-.678 9.534 1.067 14.468 5.234 14.8M44.087 27.57c.665 9.743-1.265 15.428-5.79 17.056M24.231 37.123c-.21 22.39 4.383 34.694 13.78 36.908M21.048 64.395c0 .647.132 26.743 16.637 29.008M54.19 33.628c-1.932 7.698-2.898 17.445-2.898 29.24 0 17.694-6.663 23.067-12.959 22.107"
              stroke="#09584A" stroke-width="1.5" stroke-linecap="round"/>
        <path d="M18.777 46.031c0 .37-.584 15.12 8.3 14.795M32.473 55.512c1.357 6.48.322 10.11-3.106 10.891M18.464 72.729c.412 5.888 2.332 8.833 5.76 8.833M44.827 59.554c-.677 9.187 1.098 14.012 5.326 14.477M59.443 41.581c1.447 10.79-1.223 16.78-8.008 17.973M54.091 70.808c-.097 6.892-2.54 10.477-7.33 10.754"
              stroke="#09584A" stroke-linecap="round"/>
    </g>
</svg>