<svg width="77" height="124" viewBox="0 0 77 124" xmlns="http://www.w3.org/2000/svg">
    <title>银杏右</title>
    <desc>Created with Sketch.</desc>
    <g fill="none">
        <ellipse fill="#000" opacity=".15" cx="37.969" cy="115.701" rx="22.816" ry="5.888"/>
        <path d="M52.688 7.143c-4.994-.971-6.226 13.689-11.029 13.403-4.803-.286-3.32-2.913-6.129-3.46-2.809-.546-7.787 25.047-10.093 25.246-2.306.199-1.266-3.485-4.543 1.708s-10.181 44.016 16.349 49.176c26.529 5.16 35.478-24.195 33.163-25.617-2.315-1.422-3.104 2.635-4.049.832-.945-1.803 4.698-18.587 5.481-24.847 1.108-8.863-.168-13.708-2.071-14.331-4.872-1.596-6.017 5.956-8.826 5.409-2.809-.546 4.275-16.984.53-17.712-3.745-.728-2.289 3.442-5.41 2.835-3.121-.607 1.622-11.669-3.372-12.641z"
              fill="#008051"/>
        <path d="M48.685 24.434c-5.221 16.575-8.45 29.895-9.685 39.961-1.235 10.066-1.674 26.621-1.315 49.667"
              stroke="#09584A" stroke-width="3" stroke-linecap="round"/>
        <path d="M40.29 24.307c-1.996 9.345-.955 14.472 3.124 15.381" stroke="#09584A" stroke-width="1.5"
              stroke-linecap="round"/>
        <path d="M55.329 30.382c-2.547 9.433-6.226 14.183-11.037 14.248" stroke="#09584A"
              stroke-width="1.5014999999999998" stroke-linecap="round"/>
        <path d="M31.528 35.164c-4.483 21.948-2.322 34.906 6.483 38.876" stroke="#09584A" stroke-width="1.5"
              stroke-linecap="round"/>
        <path d="M24.705 62.576c-.079.642-3.131 26.572 12.982 30.835" stroke="#09584A" stroke-width="1.5"
              stroke-linecap="round"/>
        <path d="M66.166 39.001c-3.737 7-7.032 16.22-9.887 27.662-4.282 17.163-12.046 20.762-17.92 18.307"
              stroke="#09584A" stroke-width="1.5" stroke-linecap="round"/>
        <path d="M23.19 44.914c-.058.366-2.936 14.848 5.892 15.912" stroke="#09584A" stroke-linecap="round"/>
        <path d="M34.473 55.512c1.357 6.479.322 10.11-3.106 10.891" stroke="#09584A" stroke-linecap="round"/>
        <path d="M20.464 72.729c.412 5.889 2.332 8.833 5.76 8.833" stroke="#09584A" stroke-linecap="round"/>
        <path d="M49.631 59.01c-1.793 9.039-.619 14.048 3.522 15.025" stroke="#09584A" stroke-linecap="round"/>
        <path d="M70.553 44.056c-1.208 10.815-5.247 15.98-12.118 15.496" stroke="#09584A" stroke-linecap="round"/>
        <path d="M59.475 72.902c-1.762 6.662-5 9.548-9.713 8.657" stroke="#09584A" stroke-linecap="round"/>
    </g>
</svg>