<svg width="77" height="124" viewBox="0 0 77 124" xmlns="http://www.w3.org/2000/svg">
    <title>银杏初始</title>
    <desc>Created with Sketch.</desc>
    <g fill="none">
        <ellipse fill="#000" opacity=".15" cx="37.969" cy="115.701" rx="22.816" ry="5.888"/>
        <path d="M35.96 6c-5.085 0-3.496 14.62-8.264 15.256-4.767.636-3.814-2.225-6.674-2.225-2.86 0-2.86 26.062-5.085 26.698-2.225.636-1.907-3.178-4.132 2.543-2.225 5.721-1.589 45.132 25.426 45.132 27.016 0 30.194-30.512 27.651-31.465-2.543-.953-2.543 3.178-3.814 1.589s1.062-19.134.636-25.426c-.604-8.908-2.781-13.418-4.767-13.667-5.085-.636-4.767 6.992-7.628 6.992-2.86 0 .953-17.481-2.86-17.481-3.814 0-1.589 3.814-4.767 3.814-3.178 0-.636-11.76-5.721-11.76z"
              fill="#008051"/>
        <path stroke="#09584A" stroke-width="3" stroke-linecap="round" d="M37.685 24.434v89.628"/>
        <path d="M32.18 24.889c-.678 9.534 1.067 14.468 5.234 14.801" stroke="#09584A" stroke-width="1.5"
              stroke-linecap="round"/>
        <path d="M44.087 27.57c.665 9.743-1.265 15.428-5.789 17.056" stroke="#09584A" stroke-width="1.5"
              stroke-linecap="round"/>
        <path d="M24.231 37.123c-.21 22.391 4.383 34.694 13.78 36.908" stroke="#09584A" stroke-width="1.5"
              stroke-linecap="round"/>
        <path d="M21.048 64.395c0 .646.132 26.743 16.637 29.008" stroke="#09584A" stroke-width="1.5"
              stroke-linecap="round"/>
        <path d="M54.19 33.628c-1.932 7.698-2.897 17.445-2.897 29.24 0 17.693-6.663 23.066-12.959 22.106"
              stroke="#09584A" stroke-width="1.5" stroke-linecap="round"/>
        <path d="M18.777 46.031c0 .371-.584 15.12 8.3 14.795" stroke="#09584A" stroke-linecap="round"/>
        <path d="M32.473 55.512c1.357 6.479.322 10.11-3.106 10.891" stroke="#09584A" stroke-linecap="round"/>
        <path d="M18.464 72.729c.412 5.889 2.332 8.833 5.76 8.833" stroke="#09584A" stroke-linecap="round"/>
        <path d="M44.827 59.554c-.677 9.186 1.098 14.012 5.326 14.477" stroke="#09584A" stroke-linecap="round"/>
        <path d="M59.443 41.581c1.447 10.789-1.223 16.78-8.008 17.973" stroke="#09584A" stroke-linecap="round"/>
        <path d="M54.091 70.808c-.097 6.892-2.54 10.477-7.33 10.754" stroke="#09584A" stroke-linecap="round"/>
    </g>
</svg>