<svg width="77" height="124" viewBox="0 0 77 124" xmlns="http://www.w3.org/2000/svg">
    <title>银杏左</title>
    <desc>Created with Sketch.</desc>
    <g transform="translate(-3)" fill="none">
        <ellipse fill="#000" opacity=".15" cx="40.969" cy="115.701" rx="22.816" ry="5.888"/>
        <path d="M25.334 7.427c-5.024.793-1.173 14.99-5.784 16.362-4.611 1.372-4.115-1.603-6.941-1.157-2.826.446 1.24 26.196-.859 27.171-2.099.975-2.38-2.843-3.686 3.157-1.306 5.999 5.47 44.838 32.162 40.624 26.691-4.214 25.072-34.856 22.411-35.401-2.661-.545-2.016 3.537-3.52 2.165-1.504-1.372-1.935-19.07-3.338-25.22-1.987-8.707-4.841-12.824-6.842-12.759-5.123.165-3.619 7.652-6.446 8.098-2.826.446-1.785-17.42-5.553-16.825-3.768.595-.975 4.016-4.115 4.512-3.14.496-2.463-11.519-7.487-10.726z"
              fill="#008051"/>
        <path d="M27.685 24.434c6.569 13.619 10.625 25.751 12.169 36.397 1.544 10.646 1.821 28.39.831 53.231"
              stroke="#09584A" stroke-width="3" stroke-linecap="round"/>
        <path d="M22.014 27.93c2.947 9.092 6.415 13.012 10.403 11.758" stroke="#09584A" stroke-width="1.5"
              stroke-linecap="round"/>
        <path d="M36.594 26.626c4.109 8.862 4.342 14.862.699 18.003" stroke="#09584A" stroke-width="1.5"
              stroke-linecap="round"/>
        <path d="M20.436 40.424c4.07 22.028 10.931 33.232 20.581 33.612" stroke="#09584A" stroke-width="1.5"
              stroke-linecap="round"/>
        <path d="M20.178 66.996c.09.64 3.848 26.457 20.503 26.405" stroke="#09584A" stroke-width="1.5"
              stroke-linecap="round"/>
        <path d="M48.959 31.776c-.708 7.907-.141 17.687 1.699 29.341 2.76 17.481-2.985 23.829-9.355 23.863"
              stroke="#09584A" stroke-width="1.5" stroke-linecap="round"/>
        <path d="M17.777 46.031c0 .371-.584 15.12 8.3 14.795" stroke="#09584A" stroke-linecap="round"/>
        <path d="M32.473 55.512c1.357 6.479.322 10.11-3.106 10.891" stroke="#09584A" stroke-linecap="round"/>
        <path d="M15.27 75.993c2.864 5.161 5.849 7.016 8.955 5.566" stroke="#09584A" stroke-linecap="round"/>
        <path d="M45.827 59.554c-.677 9.186 1.098 14.012 5.326 14.477" stroke="#09584A" stroke-linecap="round"/>
        <path d="M52.841 40.029c4.533 9.892 3.731 16.398-2.408 19.52" stroke="#09584A" stroke-linecap="round"/>
        <path d="M56.091 70.808c-.097 6.892-2.54 10.477-7.33 10.754" stroke="#09584A" stroke-linecap="round"/>
    </g>
</svg>